# xmcd CD database file
#
# Track frame offsets:
#	150
#	13815
#	22700
#	38631
#	55780
#	67416
#	75205
#	91649
#	106265
#	123448
#	131429
#	142191
#	150613
#	163707
#	175399
#	182713
#	197340
#	214923
#	241242
#	246564
#	256808
#	272372
#	287211
#	300454
#	308751
#	325522
#	344189
#
# Disc length: 4731 seconds
#
# Revision: 2
# Processed by: cddbd v1.5.2PL0 Copyright (c) Steve Scherf et al.
# Submitted via: CDex 1.51
#
DISCID=7412791b
DTITLE=Alexandre Desplat - Harry Potter And The Deathly Hallows (Part 1)
DYEAR=2010
DGENRE=Soundtrack
TTITLE0=Obliviate
TTITLE1=Snape To Malfoy Manor
TTITLE2=Polyjuice Potion
TTITLE3=Sky Battle
TTITLE4=At The Burrow
TTITLE5=Harry And Ginny
TTITLE6=The Will
TTITLE7=Death Eaters
TTITLE8=Dobby
TTITLE9=Ministry Of Magic
TTITLE10=Detonators
TTITLE11=The Locket
TTITLE12=Fireplaces Escape
TTITLE13=Ron Leaves
TTITLE14=The Exodus
TTITLE15=Godric's Hollow Graveyard
TTITLE16=Bathilda Bagshot
TTITLE17=Hermione's Parents
TTITLE18=Destroying The Locket
TTITLE19=Ron's Speech
TTITLE20=Lovegood
TTITLE21=The Deathly Hallows
TTITLE22=Captured And Tortured
TTITLE23=Rescuing Hermione
TTITLE24=Farewell To Dobby
TTITLE25=The Elder Wand
TTITLE26=Enhanced CD
EXTD=YEAR: 2010
EXTT0=
EXTT1=
EXTT2=
EXTT3=
EXTT4=
EXTT5=
EXTT6=
EXTT7=
EXTT8=
EXTT9=
EXTT10=
EXTT11=
EXTT12=
EXTT13=
EXTT14=
EXTT15=
EXTT16=
EXTT17=
EXTT18=
EXTT19=
EXTT20=
EXTT21=
EXTT22=
EXTT23=
EXTT24=
EXTT25=
EXTT26=
PLAYORDER=
